<svg xmlns="http://www.w3.org/2000/svg" viewBox="0 0 340 330" width="340" height="330">
  <defs>
    <style>@import url('https://fonts.googleapis.com/css2?family=Cormorant+Garamond:wght@500&family=DM+Sans:wght@400;500&display=swap');</style>
  </defs>

  <!-- ════════════════════════════ -->
  <!-- ICON MARK  y: 10 → 190      -->
  <!-- ════════════════════════════ -->
  <ellipse cx="170" cy="172" rx="104" ry="28" fill="none" stroke="#6B1E2E" stroke-width="6"/>
  <ellipse cx="170" cy="144" rx="82"  ry="22" fill="none" stroke="#6B1E2E" stroke-width="5.5"/>
  <ellipse cx="170" cy="120" rx="61"  ry="16" fill="none" stroke="#6B1E2E" stroke-width="5"/>

  <line x1="111" y1="120" x2="90"  y2="64"  stroke="#B8922A" stroke-width="1.9" stroke-linecap="round"/>
  <line x1="229" y1="120" x2="250" y2="64"  stroke="#B8922A" stroke-width="1.9" stroke-linecap="round"/>
  <line x1="170" y1="104" x2="170" y2="34"  stroke="#B8922A" stroke-width="1.9" stroke-linecap="round"/>
  <path d="M90 64 Q130 48 170 44 Q210 48 250 64" fill="none" stroke="#B8922A" stroke-width="1.1" opacity="0.65"/>
  <circle cx="111" cy="120" r="2.2" fill="#B8922A"/>
  <circle cx="229" cy="120" r="2.2" fill="#B8922A"/>
  <circle cx="170" cy="104" r="2.2" fill="#B8922A"/>

  <!-- left gem — deep tones for white bg contrast -->
  <polygon points="90,40 99,51 90,62 81,51"  fill="#C0A080" opacity="0.6"/>
  <polygon points="90,40 99,51 90,46 83,44"  fill="#EEE8DE" opacity="0.97"/>
  <polygon points="90,40 99,51 96,44 90,46"  fill="#DDD0BE" opacity="0.88"/>
  <polygon points="90,62 81,51 85,55 90,59"  fill="#907050" opacity="0.74"/>
  <polygon points="90,62 99,51 95,55 90,59"  fill="#B08860" opacity="0.62"/>
  <polygon points="81,51 90,40 83,44 85,55"  fill="#887060" opacity="0.78"/>
  <polygon points="99,51 90,40 96,44 95,55"  fill="#B09878" opacity="0.68"/>
  <polygon points="90,40 99,51 90,62 81,51"  fill="none" stroke="#B8922A" stroke-width="0.9"/>
  <line x1="90" y1="40" x2="90" y2="62" stroke="#B8922A" stroke-width="0.45" opacity="0.4"/>
  <line x1="81" y1="51" x2="99" y2="51" stroke="#B8922A" stroke-width="0.45" opacity="0.4"/>
  <line x1="90" y1="33" x2="90" y2="26" stroke="#B8922A" stroke-width="1.5" stroke-linecap="round"/>
  <line x1="90" y1="69" x2="90" y2="76" stroke="#B8922A" stroke-width="0.9" stroke-linecap="round" opacity="0.5"/>
  <line x1="73" y1="51" x2="66" y2="51" stroke="#B8922A" stroke-width="0.9" stroke-linecap="round" opacity="0.5"/>
  <line x1="107" y1="51" x2="114" y2="51" stroke="#B8922A" stroke-width="0.9" stroke-linecap="round" opacity="0.5"/>
  <line x1="77" y1="39" x2="72" y2="34" stroke="#B8922A" stroke-width="0.9" stroke-linecap="round" opacity="0.7"/>
  <line x1="103" y1="39" x2="108" y2="34" stroke="#B8922A" stroke-width="0.9" stroke-linecap="round" opacity="0.7"/>
  <line x1="77" y1="63" x2="72" y2="68" stroke="#B8922A" stroke-width="0.7" stroke-linecap="round" opacity="0.36"/>
  <line x1="103" y1="63" x2="108" y2="68" stroke="#B8922A" stroke-width="0.7" stroke-linecap="round" opacity="0.36"/>
  <circle cx="85" cy="43" r="1.4" fill="#FAF6F0" opacity="0.95"/>

  <!-- center gem -->
  <polygon points="170,10 181,21 170,32 159,21" fill="#C0A080" opacity="0.6"/>
  <polygon points="170,10 181,21 170,16 163,14" fill="#EEE8DE" opacity="0.97"/>
  <polygon points="170,10 181,21 177,14 170,16" fill="#DDD0BE" opacity="0.88"/>
  <polygon points="170,32 159,21 163,26 170,29" fill="#907050" opacity="0.74"/>
  <polygon points="170,32 181,21 177,26 170,29" fill="#B08860" opacity="0.62"/>
  <polygon points="159,21 170,10 163,14 163,26" fill="#887060" opacity="0.78"/>
  <polygon points="181,21 170,10 177,14 177,26" fill="#B09878" opacity="0.68"/>
  <polygon points="170,10 181,21 170,32 159,21" fill="none" stroke="#B8922A" stroke-width="1.05"/>
  <line x1="170" y1="10" x2="170" y2="32" stroke="#B8922A" stroke-width="0.5" opacity="0.4"/>
  <line x1="159" y1="21" x2="181" y2="21" stroke="#B8922A" stroke-width="0.5" opacity="0.4"/>
  <line x1="170" y1="38" x2="170" y2="44" stroke="#B8922A" stroke-width="1.1" stroke-linecap="round" opacity="0.5"/>
  <line x1="153" y1="21" x2="146" y2="21" stroke="#B8922A" stroke-width="1.1" stroke-linecap="round" opacity="0.5"/>
  <line x1="187" y1="21" x2="194" y2="21" stroke="#B8922A" stroke-width="1.1" stroke-linecap="round" opacity="0.5"/>
  <line x1="157" y1="8"  x2="151" y2="2"  stroke="#B8922A" stroke-width="1.0" stroke-linecap="round" opacity="0.72"/>
  <line x1="183" y1="8"  x2="189" y2="2"  stroke="#B8922A" stroke-width="1.0" stroke-linecap="round" opacity="0.72"/>
  <line x1="157" y1="34" x2="151" y2="40" stroke="#B8922A" stroke-width="0.8" stroke-linecap="round" opacity="0.36"/>
  <line x1="183" y1="34" x2="189" y2="40" stroke="#B8922A" stroke-width="0.8" stroke-linecap="round" opacity="0.36"/>
  <circle cx="165" cy="13" r="1.7" fill="#FAF6F0" opacity="0.95"/>
  <circle cx="163" cy="11" r="0.85" fill="white"/>

  <!-- right gem -->
  <polygon points="250,40 259,51 250,62 241,51" fill="#C0A080" opacity="0.6"/>
  <polygon points="250,40 259,51 250,46 243,44" fill="#EEE8DE" opacity="0.97"/>
  <polygon points="250,40 259,51 256,44 250,46" fill="#DDD0BE" opacity="0.88"/>
  <polygon points="250,62 241,51 245,55 250,59" fill="#907050" opacity="0.74"/>
  <polygon points="250,62 259,51 255,55 250,59" fill="#B08860" opacity="0.62"/>
  <polygon points="241,51 250,40 243,44 245,55" fill="#887060" opacity="0.78"/>
  <polygon points="259,51 250,40 256,44 255,55" fill="#B09878" opacity="0.68"/>
  <polygon points="250,40 259,51 250,62 241,51" fill="none" stroke="#B8922A" stroke-width="0.9"/>
  <line x1="250" y1="40" x2="250" y2="62" stroke="#B8922A" stroke-width="0.45" opacity="0.4"/>
  <line x1="241" y1="51" x2="259" y2="51" stroke="#B8922A" stroke-width="0.45" opacity="0.4"/>
  <line x1="250" y1="33" x2="250" y2="26" stroke="#B8922A" stroke-width="1.5" stroke-linecap="round"/>
  <line x1="250" y1="69" x2="250" y2="76" stroke="#B8922A" stroke-width="0.9" stroke-linecap="round" opacity="0.5"/>
  <line x1="233" y1="51" x2="226" y2="51" stroke="#B8922A" stroke-width="0.9" stroke-linecap="round" opacity="0.5"/>
  <line x1="267" y1="51" x2="274" y2="51" stroke="#B8922A" stroke-width="0.9" stroke-linecap="round" opacity="0.5"/>
  <line x1="237" y1="39" x2="232" y2="34" stroke="#B8922A" stroke-width="0.9" stroke-linecap="round" opacity="0.7"/>
  <line x1="263" y1="39" x2="268" y2="34" stroke="#B8922A" stroke-width="0.9" stroke-linecap="round" opacity="0.7"/>
  <line x1="237" y1="63" x2="232" y2="68" stroke="#B8922A" stroke-width="0.7" stroke-linecap="round" opacity="0.36"/>
  <line x1="263" y1="63" x2="268" y2="68" stroke="#B8922A" stroke-width="0.7" stroke-linecap="round" opacity="0.36"/>
  <circle cx="245" cy="43" r="1.4" fill="#FAF6F0" opacity="0.95"/>

  <!-- ════════════════════════════ -->
  <!-- GAP + separator rule        -->
  <!-- ════════════════════════════ -->
  <line x1="115" y1="206" x2="225" y2="206" stroke="#B8922A" stroke-width="0.5" opacity="0.35"/>

  <!-- ════════════════════════════ -->
  <!-- WORDMARK  y: 230 → 305      -->
  <!-- ════════════════════════════ -->

  <!-- TRIBUTE wordmark -->
  <text x="170" y="250"
    font-family="'Cormorant Garamond',Georgia,serif"
    font-size="46" font-weight="500"
    fill="#4A0E1A" text-anchor="middle" letter-spacing="3">TRIBUTE</text>

  <!-- TM superscript — dark gold on white -->
  <text x="257" y="232"
    font-family="'DM Sans',sans-serif"
    font-size="9" font-weight="500"
    fill="#B8922A">&#8482;</text>

  <!-- subtitle -->
  <text x="170" y="272"
    font-family="'DM Sans',sans-serif"
    font-size="10" font-weight="400"
    fill="#B8922A" text-anchor="middle" letter-spacing="4">HAIR  &amp;  BODY  CARE</text>

  <line x1="94" y1="281" x2="246" y2="281" stroke="#B8922A" stroke-width="0.6"/>

  <text x="170" y="295"
    font-family="'DM Sans',sans-serif"
    font-size="8" font-weight="400"
    fill="#8A6A70" text-anchor="middle" letter-spacing="2.8">MANSFIELD  ·  TEXAS</text>

</svg>
